<?xml version="1.0" encoding="UTF-8"?><svg id="a" xmlns="http://www.w3.org/2000/svg" width="828.58" height="149.27" viewBox="0 0 828.58 149.27"><polygon points="630.11 145.89 655.03 6.64 693.5 6.64 668.59 145.89 630.11 145.89" style="fill:#0033a1; stroke-width:0px;"/><path d="m41.52,60.3c2.51-13.91,10.03-24.56,32.68-24.56h74.34l6.45-29.1H60.52c-23.1,0-42.3,9.65-46.75,30.88h-.01s-.09.52-.09.52c-.05.27-.11.54-.15.81L.43,109.62h.05c-.29,1.67-.48,3.39-.48,5.16,0,17.18,8.28,31.11,25.41,31.11h102.34l6.19-29.1H52.37c-11.27-.01-18.27-7.21-18.27-16.08,0-.24-.03-.47-.07-.69l7.46-39.62s.02-.07.03-.1Z" style="fill:#0033a1; stroke-width:0px;"/><path d="m608.35,37.75c0-17.18-8.28-31.11-25.41-31.11h-104.24l-25.34,139.26h40.59l20.05-110.15h41.99c11.27.02,18.27,7.21,18.27,16.09,0,.17.03.33.05.49l-3.58,20.51h31.83c.05-.26,5.37-29.91,5.37-29.91h-.05c.28-1.67.47-3.39.47-5.16Z" style="fill:#0033a1; stroke-width:0px;"/><path d="m437.89,145.89L387.35,6.64s-2.45-6.64-19.91-6.64c-15.97,0-19.91,6.64-19.91,6.64l-83.52,110.15h-58.92c-11.27-.01-18.27-7.21-18.27-16.08,0-.24-.03-.47-.07-.69L203.83,6.64h-31.83l-18.86,102.99h.05c-.29,1.67-.48,3.39-.48,5.16,0,17.18,8.28,31.11,25.41,31.11h103.66l78.65-103.68,37.63,103.68h39.82Z" style="fill:#0033a1; stroke-width:0px;"/><path d="m609.7,145.89l-63.39-75.56h0l-6.63-7.9c-7.07,0-15.41,10.53-15.41,23.03,0,7.51.56,13.33,4.29,18.13.91,1.18,34.87,42.3,34.87,42.3h46.27Z" style="fill:#0033a1; stroke-width:0px;"/><path d="m730.38,77.93l55.79,67.96h-46.27l-37.55-45.93s-.03-.04-.05-.05l-.25-.31h.02c-4.03-5.03-6.44-11.39-6.44-18.33,0-8.73,3.84-16.56,9.9-21.93l-.02-.03,60.43-51.95h46.27l-81.81,70.57Z" style="fill:#0033a1; stroke-width:0px;"/><path d="m815.45,135.9c.87-.29,1.58-.76,2.11-1.39.65-.76.97-1.64.97-2.62,0-1.31-.45-2.36-1.34-3.1-.87-.73-2.06-1.1-3.53-1.1h-4.51v15.38h2.47v-6.64s1.3,0,1.3,0l4.29,6.64h3.04l-4.78-7.16Zm-2.09-1.72h-1.77s0-4.25,0-4.25h1.81c2.33,0,2.61,1.18,2.61,2.07,0,.63-.23,1.14-.71,1.55-.5.43-1.13.63-1.94.63Zm1.32-12.7c-7.66,0-13.89,6.23-13.89,13.89s6.23,13.89,13.89,13.89,13.9-6.23,13.9-13.89-6.23-13.89-13.9-13.89Zm0,25.54c-6.43,0-11.65-5.22-11.65-11.65s5.23-11.65,11.65-11.65,11.65,5.22,11.65,11.65-5.23,11.65-11.65,11.65Z" style="fill:#0033a1; stroke-width:0px;"/></svg>