<svg xmlns="http://www.w3.org/2000/svg" fill="none" viewBox="0 0 171 86" height="86" width="171">
<g clip-path="url(#clip0_744_6)">
<path fill="#4A4F54" d="M16.0898 84.6445C15.1363 84.0742 14.3831 83.296 13.8355 82.3046C13.2853 81.3159 13.0102 80.2232 13.0102 79.0293C13.0102 77.8353 13.2853 76.7613 13.8355 75.7779C14.3858 74.7945 15.1363 74.0136 16.0898 73.438C17.0434 72.8623 18.0984 72.5745 19.2496 72.5745C20.0696 72.5745 20.7774 72.6811 21.3757 72.897C21.974 73.1129 22.5803 73.4673 23.1946 73.963C23.3228 74.059 23.4109 74.1602 23.4537 74.2615C23.4964 74.3628 23.5178 74.4854 23.5178 74.6239C23.5178 74.8398 23.4403 75.0157 23.2827 75.157C23.1251 75.2955 22.9462 75.3675 22.7405 75.3675C22.5349 75.3675 22.3479 75.2982 22.1743 75.157C21.7309 74.7812 21.3009 74.5093 20.8815 74.3415C20.4622 74.1736 19.9173 74.0909 19.2496 74.0909C18.4082 74.0909 17.6363 74.3121 16.9285 74.7519C16.2234 75.1943 15.6625 75.7912 15.2458 76.5508C14.8318 77.3103 14.6235 78.1338 14.6235 79.0266C14.6235 79.9194 14.8318 80.7589 15.2458 81.5104C15.6598 82.262 16.2207 82.8589 16.9285 83.3013C17.6337 83.7437 18.4082 83.9623 19.2496 83.9623C20.2832 83.9623 21.2768 83.6078 22.225 82.8962C22.4093 82.7683 22.5856 82.7017 22.7592 82.7017C22.9649 82.7017 23.1332 82.7737 23.2694 82.9202C23.4029 83.0641 23.4724 83.256 23.4724 83.4932C23.4724 83.7304 23.3869 83.917 23.2133 84.0902C22.0487 85.0256 20.7293 85.4947 19.2523 85.4947C18.0984 85.4947 17.046 85.2095 16.0925 84.6392L16.0898 84.6445Z"></path>
<path fill="#4A4F54" d="M30.7 76.676C31.0232 76.8493 31.1861 77.0625 31.1861 77.321C31.1861 77.3956 31.1807 77.4489 31.1701 77.4835C31.0739 77.8273 30.8576 78.0006 30.5237 78.0006C30.4703 78.0006 30.3901 77.9899 30.2806 77.9686C29.8506 77.894 29.498 77.8566 29.2309 77.8566C28.4537 77.8566 27.8287 78.0352 27.3559 78.3897C26.8805 78.7441 26.6455 79.2238 26.6455 79.8261V84.5379C26.6455 84.7964 26.5787 84.9963 26.4425 85.1349C26.3089 85.2735 26.1059 85.3454 25.8362 85.3454C25.5664 85.3454 25.3768 85.2788 25.2379 85.1429C25.099 85.0096 25.0269 84.8071 25.0269 84.5379V77.3263C25.0269 77.0678 25.0963 76.8679 25.2379 76.7293C25.3794 76.5907 25.5771 76.5188 25.8362 76.5188C26.3757 76.5188 26.6455 76.788 26.6455 77.3263V77.6328C26.9686 77.257 27.3666 76.9612 27.842 76.7453C28.3148 76.5295 28.8223 76.4229 29.3618 76.4229C29.9334 76.4229 30.3795 76.5081 30.7026 76.6814L30.7 76.676Z"></path>
<path fill="#4A4F54" d="M38.9933 81.2972C38.8517 81.4305 38.6755 81.4998 38.4591 81.4998H32.3159C32.4334 82.254 32.778 82.8616 33.3416 83.3226C33.9078 83.7864 34.5996 84.0156 35.4196 84.0156C35.7428 84.0156 36.0793 83.9569 36.4292 83.837C36.7791 83.7197 37.0675 83.5732 37.2946 83.4026C37.4442 83.2853 37.6231 83.224 37.8288 83.224C38.0344 83.224 38.1947 83.2773 38.3149 83.3866C38.5099 83.5492 38.606 83.7304 38.606 83.9356C38.606 84.1302 38.5205 84.2901 38.3469 84.4206C37.981 84.7111 37.5243 84.9483 36.9794 85.1296C36.4345 85.3134 35.9137 85.404 35.4196 85.404C34.5355 85.404 33.7422 85.2122 33.0424 84.8311C32.3426 84.45 31.7951 83.9196 31.4024 83.2427C31.0098 82.5658 30.8122 81.7956 30.8122 80.9348C30.8122 80.074 30.9991 79.3038 31.3704 78.6188C31.7417 77.9366 32.2598 77.4036 32.9222 77.0225C33.5846 76.6414 34.3378 76.4495 35.1765 76.4495C36.0152 76.4495 36.723 76.6334 37.3266 76.9985C37.9303 77.3636 38.395 77.8753 38.7182 78.5309C39.0414 79.1865 39.2043 79.9407 39.2043 80.7882C39.2043 80.9934 39.1349 81.1613 38.9933 81.2972ZM33.2614 78.4829C32.77 78.9147 32.4601 79.4877 32.3319 80.2099H37.7166C37.6204 79.4903 37.3507 78.9147 36.9073 78.4829C36.4639 78.0539 35.8897 77.838 35.1765 77.838C34.3886 77.838 33.7502 78.0539 33.2614 78.4829Z"></path>
<path fill="#4A4F54" d="M46.277 77.0385C46.9501 77.4302 47.4843 77.9686 47.8769 78.6508C48.2695 79.3331 48.4672 80.0953 48.4672 80.9348V84.5326C48.4672 84.7698 48.3897 84.9643 48.2321 85.1216C48.0746 85.2788 47.8796 85.3561 47.6419 85.3561C47.4041 85.3561 47.2092 85.2788 47.0516 85.1216C46.894 84.967 46.8165 84.7698 46.8165 84.5326V83.9356C46.4399 84.3993 45.9805 84.7591 45.441 85.0176C44.9015 85.2761 44.3192 85.404 43.6942 85.404C42.9169 85.404 42.2145 85.2095 41.5841 84.8231C40.9538 84.4366 40.457 83.901 40.0964 83.2187C39.7358 82.5365 39.5542 81.7743 39.5542 80.9348C39.5542 80.0953 39.7492 79.3357 40.1365 78.6508C40.5238 77.9686 41.0606 77.4302 41.7444 77.0385C42.4281 76.6467 43.1867 76.4495 44.0174 76.4495C44.848 76.4495 45.5986 76.6467 46.2717 77.0385H46.277ZM45.4837 83.5572C45.9191 83.2933 46.261 82.9336 46.5094 82.4752C46.7578 82.0168 46.8806 81.5051 46.8806 80.9348C46.8806 80.3645 46.7578 79.8474 46.5094 79.3864C46.261 78.9253 45.9191 78.5602 45.4837 78.2964C45.0484 78.0325 44.5596 77.9019 44.02 77.9019C43.4805 77.9019 42.9944 78.0325 42.5564 78.2964C42.121 78.5602 41.7738 78.9227 41.5227 79.3864C41.269 79.8501 41.1434 80.3645 41.1434 80.9348C41.1434 81.5051 41.269 82.0194 41.5227 82.4752C41.7764 82.9336 42.121 83.2933 42.5564 83.5572C42.9917 83.821 43.4805 83.9516 44.02 83.9516C44.5596 83.9516 45.0457 83.821 45.4837 83.5572Z"></path>
<path fill="#4A4F54" d="M58.1841 72.9636C58.3337 73.1155 58.4112 73.3127 58.4112 73.5606V80.9161C58.4112 81.7556 58.2135 82.5151 57.8209 83.2001C57.4282 83.8823 56.8941 84.4207 56.221 84.8124C55.5479 85.2042 54.7947 85.4014 53.9667 85.4014C53.1387 85.4014 52.3801 85.2042 51.6937 84.8124C51.0099 84.4207 50.4731 83.8823 50.0858 83.2001C49.6985 82.5178 49.5035 81.7556 49.5035 80.9161C49.5035 80.0766 49.6851 79.3171 50.0457 78.6322C50.4063 77.9499 50.9031 77.4142 51.5334 77.0278C52.1638 76.6414 52.8662 76.4468 53.6435 76.4468C54.2685 76.4468 54.8508 76.5748 55.3903 76.8333C55.9298 77.0918 56.3866 77.4516 56.7658 77.9153V73.5606C56.7658 73.3127 56.8433 73.1155 57.0009 72.9636C57.1558 72.8144 57.3535 72.7371 57.5912 72.7371C57.8289 72.7371 58.0372 72.8117 58.1895 72.9636H58.1841ZM55.4277 83.5545C55.8631 83.2907 56.2049 82.9282 56.4533 82.4645C56.7017 82.0035 56.8246 81.4864 56.8246 80.9161C56.8246 80.3458 56.7017 79.8314 56.4533 79.3757C56.2049 78.9173 55.8631 78.5576 55.4277 78.2937C54.9923 78.0299 54.5035 77.8993 53.964 77.8993C53.4245 77.8993 52.9384 78.0299 52.5003 78.2937C52.065 78.5576 51.7177 78.9173 51.4667 79.3757C51.2129 79.8341 51.0874 80.3458 51.0874 80.9161C51.0874 81.4864 51.2129 82.0035 51.4667 82.4645C51.7204 82.9282 52.065 83.2907 52.5003 83.5545C52.9357 83.8184 53.4245 83.9489 53.964 83.9489C54.5035 83.9489 54.9897 83.8184 55.4277 83.5545Z"></path>
<path fill="#4A4F54" d="M62.049 84.8311C61.3706 84.45 60.8417 83.9196 60.4651 83.2427C60.0885 82.5658 59.8989 81.7956 59.8989 80.9348C59.8989 80.074 60.0885 79.2904 60.4651 78.6109C60.8417 77.9313 61.3706 77.4036 62.049 77.0225C62.7274 76.6414 63.4993 76.4495 64.362 76.4495C65.2248 76.4495 65.9753 76.6414 66.651 77.0225C67.3241 77.4036 67.853 77.9339 68.2349 78.6109C68.6169 79.2878 68.8092 80.0633 68.8092 80.9348C68.8092 81.8062 68.6195 82.5631 68.2429 83.2427C67.8663 83.9196 67.3402 84.45 66.6671 84.8311C65.994 85.2122 65.2248 85.404 64.362 85.404C63.4993 85.404 62.7301 85.2122 62.049 84.8311ZM65.8417 83.5652C66.2771 83.3067 66.619 82.9495 66.8594 82.4912C67.1024 82.0354 67.2226 81.5158 67.2226 80.9348C67.2226 80.3538 67.1024 79.8314 66.8594 79.3704C66.6163 78.9093 66.2771 78.5469 65.8417 78.2884C65.4064 78.0299 64.9123 77.9019 64.362 77.9019C63.8118 77.9019 63.3204 78.0299 62.8823 78.2884C62.447 78.5469 62.1024 78.9067 61.8567 79.3704C61.6083 79.8341 61.4854 80.3538 61.4854 80.9348C61.4854 81.5158 61.6083 82.0354 61.8567 82.4912C62.1051 82.9495 62.447 83.3067 62.8823 83.5652C63.3177 83.8237 63.8118 83.9516 64.362 83.9516C64.9123 83.9516 65.4037 83.8237 65.8417 83.5652Z"></path>
<path fill="#4A4F54" d="M75.97 76.676C76.2932 76.8493 76.4561 77.0625 76.4561 77.321C76.4561 77.3956 76.4508 77.4489 76.4401 77.4835C76.344 77.8273 76.1276 78.0006 75.7937 78.0006C75.7403 78.0006 75.6602 77.9899 75.5507 77.9686C75.1206 77.894 74.7681 77.8566 74.501 77.8566C73.7237 77.8566 73.0987 78.0352 72.626 78.3897C72.1506 78.7441 71.9155 79.2238 71.9155 79.8261V84.5379C71.9155 84.7964 71.8487 84.9963 71.7125 85.1349C71.579 85.2735 71.376 85.3454 71.1062 85.3454C70.8364 85.3454 70.6468 85.2788 70.5079 85.1429C70.369 85.0096 70.2969 84.8071 70.2969 84.5379V77.3263C70.2969 77.0678 70.3664 76.8679 70.5079 76.7293C70.6495 76.5907 70.8471 76.5188 71.1062 76.5188C71.6457 76.5188 71.9155 76.788 71.9155 77.3263V77.6328C72.2387 77.257 72.6367 76.9612 73.1121 76.7453C73.5849 76.5295 74.0923 76.4229 74.6319 76.4229C75.2035 76.4229 75.6495 76.5081 75.9727 76.6814L75.97 76.676Z"></path>
<path fill="#4A4F54" d="M84.2634 81.2972C84.1245 81.4305 83.9455 81.4998 83.7292 81.4998H77.586C77.7035 82.254 78.048 82.8616 78.6116 83.3226C79.1779 83.7864 79.8696 84.0156 80.6896 84.0156C81.0128 84.0156 81.3493 83.9569 81.6992 83.837C82.0491 83.7197 82.3376 83.5732 82.5646 83.4026C82.7142 83.2853 82.8932 83.224 83.0988 83.224C83.3045 83.224 83.4647 83.2773 83.5849 83.3866C83.7799 83.5492 83.8761 83.7304 83.8761 83.9356C83.8761 84.1302 83.7906 84.2901 83.617 84.4206C83.2511 84.7111 82.7943 84.9483 82.2495 85.1296C81.7046 85.3134 81.1837 85.404 80.6896 85.404C79.8055 85.404 79.0123 85.2122 78.3125 84.8311C77.6127 84.45 77.0651 83.9196 76.6725 83.2427C76.2799 82.5658 76.0822 81.7956 76.0822 80.9348C76.0822 80.074 76.2692 79.3038 76.6404 78.6188C77.0117 77.9366 77.5299 77.4036 78.1923 77.0225C78.8547 76.6414 79.6079 76.4495 80.4466 76.4495C81.2852 76.4495 81.993 76.6334 82.5967 76.9985C83.2003 77.3636 83.6651 77.8753 83.9882 78.5309C84.3114 79.1865 84.4744 79.9407 84.4744 80.7882C84.4744 80.9934 84.4049 81.1613 84.2634 81.2972ZM78.5315 78.4829C78.04 78.9147 77.7302 79.4877 77.602 80.2099H82.9866C82.8905 79.4903 82.6207 78.9147 82.1773 78.4829C81.7366 78.0539 81.1597 77.838 80.4466 77.838C79.6586 77.838 79.0203 78.0539 78.5315 78.4829Z"></path>
<path fill="#4A4F54" d="M86.7553 85.0656C86.109 84.8391 85.6015 84.5432 85.2356 84.1781C85.0967 84.0395 85.0246 83.8717 85.0246 83.6771C85.0246 83.4186 85.1314 83.2081 85.3478 83.0481C85.5534 82.8989 85.7404 82.8216 85.914 82.8216C86.1303 82.8216 86.3333 82.9176 86.5283 83.1121C86.734 83.3386 87.0411 83.5332 87.4498 83.7011C87.8585 83.869 88.2965 83.9516 88.7586 83.9516C89.3729 83.9516 89.851 83.8503 90.1902 83.6451C90.5294 83.4399 90.7003 83.1654 90.7003 82.8216C90.7003 82.4778 90.5321 82.2113 90.1982 81.9901C89.8643 81.7689 89.2981 81.585 88.4995 81.4331C86.4295 81.036 85.3958 80.1859 85.3958 78.8853C85.3958 78.3577 85.5534 77.9126 85.8659 77.5475C86.1784 77.1824 86.5871 76.9079 87.0946 76.724C87.602 76.5401 88.1389 76.4495 88.7105 76.4495C89.4103 76.4495 90.038 76.5614 90.5935 76.788C91.1491 77.0145 91.5871 77.3263 91.9103 77.7234C92.0492 77.8966 92.1213 78.0672 92.1213 78.2404C92.1213 78.4243 92.0305 78.5895 91.8462 78.7414C91.7287 78.8267 91.5764 78.8694 91.3921 78.8694C91.1117 78.8694 90.8579 78.7681 90.6336 78.5629C90.3638 78.315 90.078 78.1418 89.7762 78.0379C89.4744 77.9366 89.1085 77.886 88.6758 77.886C88.179 77.886 87.773 77.9686 87.4551 78.1365C87.1373 78.3044 86.9797 78.5362 86.9797 78.8374C86.9797 79.0532 87.0331 79.2318 87.1426 79.3784C87.2495 79.5223 87.4551 79.6582 87.757 79.7808C88.0588 79.9034 88.4941 80.026 89.0657 80.1433C90.2409 80.3804 91.0743 80.7082 91.5631 81.1267C92.0519 81.5451 92.2976 82.0887 92.2976 82.755C92.2976 83.2507 92.1614 83.6984 91.8943 84.1008C91.6245 84.5033 91.2292 84.8204 90.7057 85.0523C90.1822 85.2841 89.5545 85.3987 88.8227 85.3987C88.0908 85.3987 87.399 85.2868 86.7527 85.0603L86.7553 85.0656Z"></path>
<path fill="#4A4F54" d="M105.412 72.9636C105.564 73.1155 105.639 73.3127 105.639 73.5606V80.9161C105.639 81.7556 105.441 82.5151 105.049 83.2001C104.656 83.8823 104.122 84.4207 103.449 84.8124C102.776 85.2042 102.023 85.4014 101.195 85.4014C100.367 85.4014 99.608 85.2042 98.9216 84.8124C98.2378 84.4207 97.7009 83.8823 97.3137 83.2001C96.9264 82.5178 96.7314 81.7556 96.7314 80.9161C96.7314 80.0766 96.913 79.3171 97.2736 78.6322C97.6342 77.9499 98.131 77.4142 98.7613 77.0278C99.3917 76.6414 100.094 76.4468 100.871 76.4468C101.496 76.4468 102.079 76.5748 102.618 76.8333C103.158 77.0918 103.614 77.4516 103.994 77.9153V73.5606C103.994 73.3127 104.071 73.1155 104.229 72.9636C104.384 72.8144 104.581 72.7371 104.819 72.7371C105.057 72.7371 105.265 72.8117 105.417 72.9636H105.412ZM102.656 83.5545C103.091 83.2907 103.435 82.9282 103.681 82.4645C103.93 82.0035 104.052 81.4864 104.052 80.9161C104.052 80.3458 103.93 79.8314 103.681 79.3757C103.433 78.9173 103.091 78.5576 102.656 78.2937C102.22 78.0299 101.731 77.8993 101.192 77.8993C100.652 77.8993 100.166 78.0299 99.7282 78.2937C99.2928 78.5576 98.9456 78.9173 98.6919 79.3757C98.4381 79.8341 98.3126 80.3458 98.3126 80.9161C98.3126 81.4864 98.4381 82.0035 98.6919 82.4645C98.9456 82.9282 99.2902 83.2907 99.7282 83.5545C100.164 83.8184 100.652 83.9489 101.192 83.9489C101.731 83.9489 102.218 83.8184 102.656 83.5545Z"></path>
<path fill="#4A4F54" d="M115.308 81.2972C115.169 81.4305 114.99 81.4998 114.774 81.4998H108.63C108.748 82.254 109.093 82.8616 109.656 83.3226C110.222 83.7864 110.914 84.0156 111.734 84.0156C112.057 84.0156 112.394 83.9569 112.744 83.837C113.094 83.7197 113.382 83.5732 113.609 83.4026C113.759 83.2853 113.938 83.224 114.143 83.224C114.349 83.224 114.509 83.2773 114.629 83.3866C114.824 83.5492 114.921 83.7304 114.921 83.9356C114.921 84.1302 114.835 84.2901 114.661 84.4206C114.296 84.7111 113.839 84.9483 113.294 85.1296C112.749 85.3134 112.228 85.404 111.734 85.404C110.85 85.404 110.057 85.2122 109.357 84.8311C108.657 84.45 108.11 83.9196 107.717 83.2427C107.324 82.5658 107.127 81.7956 107.127 80.9348C107.127 80.074 107.314 79.3038 107.685 78.6188C108.056 77.9366 108.574 77.4036 109.237 77.0225C109.899 76.6414 110.652 76.4495 111.491 76.4495C112.33 76.4495 113.038 76.6334 113.641 76.9985C114.245 77.3636 114.71 77.8753 115.033 78.5309C115.356 79.1865 115.519 79.9407 115.519 80.7882C115.519 80.9934 115.449 81.1613 115.308 81.2972ZM109.576 78.4829C109.085 78.9147 108.775 79.4877 108.646 80.2099H114.031C113.935 79.4903 113.665 78.9147 113.222 78.4829C112.781 78.0539 112.204 77.838 111.491 77.838C110.703 77.838 110.065 78.0539 109.576 78.4829Z"></path>
<path fill="#4A4F54" d="M122.13 84.8231C121.451 84.4366 120.92 83.901 120.538 83.2187C120.156 82.5365 119.963 81.7743 119.963 80.9348C119.963 80.0953 120.15 79.3038 120.522 78.6188C120.893 77.9366 121.414 77.4036 122.081 77.0225C122.749 76.6414 123.505 76.4495 124.344 76.4495C125.615 76.4495 126.673 76.9345 127.511 77.9019C127.618 78.0192 127.674 78.1605 127.674 78.3204C127.674 78.5575 127.557 78.7548 127.319 78.9173C127.212 78.9919 127.087 79.0293 126.948 79.0293C126.7 79.0293 126.489 78.9333 126.318 78.7388C126.048 78.4483 125.754 78.2351 125.436 78.1018C125.118 77.9686 124.755 77.8993 124.344 77.8993C123.513 77.8993 122.84 78.1765 122.322 78.7308C121.804 79.2851 121.545 80.018 121.545 80.9321C121.545 81.5131 121.667 82.0328 121.908 82.4885C122.151 82.9469 122.49 83.304 122.925 83.5625C123.361 83.821 123.86 83.9489 124.421 83.9489C125.153 83.9489 125.746 83.7597 126.2 83.3839C126.406 83.2347 126.603 83.1574 126.798 83.1574C126.951 83.1574 127.089 83.2054 127.218 83.3013C127.423 83.4746 127.525 83.6664 127.525 83.8823C127.525 84.0449 127.461 84.1888 127.33 84.3167C126.553 85.0363 125.583 85.3987 124.419 85.3987C123.566 85.3987 122.803 85.2042 122.122 84.8177L122.13 84.8231Z"></path>
<path fill="#4A4F54" d="M130.012 84.959C129.64 84.7058 129.352 84.3514 129.146 83.893C128.94 83.4373 128.839 82.9229 128.839 82.3526V73.5446C128.839 73.3074 128.914 73.1155 129.066 72.9636C129.216 72.8144 129.411 72.7371 129.648 72.7371C129.886 72.7371 130.078 72.8117 130.231 72.9636C130.38 73.1155 130.458 73.3074 130.458 73.5446V82.3526C130.458 82.7497 130.532 83.0775 130.685 83.336C130.837 83.5945 131.029 83.7224 131.267 83.7224H131.67C131.887 83.7224 132.06 83.797 132.196 83.9489C132.33 84.1008 132.399 84.2927 132.399 84.5299C132.399 84.7671 132.298 84.959 132.092 85.1109C131.887 85.2628 131.622 85.3374 131.299 85.3374H131.267C130.802 85.3374 130.385 85.2122 130.014 84.959H130.012Z"></path>
<path fill="#4A4F54" d="M133.278 74.7625C133.067 74.552 132.963 74.3015 132.963 74.0137C132.963 73.7258 133.067 73.4726 133.278 73.2621C133.489 73.0516 133.74 72.9476 134.029 72.9476C134.317 72.9476 134.571 73.0516 134.779 73.2621C134.987 73.4726 135.094 73.7232 135.094 74.0137C135.094 74.3041 134.99 74.5547 134.779 74.7625C134.568 74.9704 134.317 75.077 134.029 75.077C133.74 75.077 133.486 74.9731 133.278 74.7625ZM133.441 85.1029C133.283 84.9483 133.206 84.7511 133.206 84.5139V77.3343C133.206 77.0864 133.283 76.8892 133.441 76.7373C133.596 76.5881 133.794 76.5108 134.031 76.5108C134.269 76.5108 134.477 76.5854 134.63 76.7373C134.779 76.8892 134.857 77.0864 134.857 77.3343V84.5139C134.857 84.7511 134.782 84.9457 134.63 85.1029C134.477 85.2601 134.28 85.3374 134.031 85.3374C133.783 85.3374 133.596 85.2601 133.441 85.1029Z"></path>
<path fill="#4A4F54" d="M148.524 77.3529C149.101 77.9659 149.389 78.8214 149.389 79.9194V84.5326C149.389 84.7698 149.315 84.9643 149.162 85.1216C149.01 85.2788 148.812 85.3561 148.564 85.3561C148.316 85.3561 148.129 85.2788 147.974 85.1216C147.816 84.967 147.739 84.7698 147.739 84.5326V79.9194C147.739 79.2638 147.573 78.7654 147.245 78.427C146.916 78.0885 146.478 77.9179 145.928 77.9179C145.378 77.9179 144.907 78.1125 144.544 78.4989C144.184 78.8853 144.002 79.381 144.002 79.9833V84.5326C144.002 84.7698 143.927 84.9643 143.775 85.1216C143.623 85.2788 143.425 85.3561 143.177 85.3561C142.928 85.3561 142.744 85.2788 142.586 85.1216C142.429 84.967 142.351 84.7698 142.351 84.5326V79.9194C142.351 79.2638 142.186 78.7654 141.857 78.427C141.529 78.0885 141.091 77.9179 140.54 77.9179C139.99 77.9179 139.504 78.1125 139.141 78.4989C138.78 78.8853 138.599 79.381 138.599 79.9833V84.5326C138.599 84.7698 138.524 84.9643 138.372 85.1216C138.219 85.2788 138.022 85.3561 137.773 85.3561C137.525 85.3561 137.338 85.2788 137.183 85.1216C137.025 84.967 136.948 84.7698 136.948 84.5326V77.3529C136.948 77.1051 137.025 76.9079 137.183 76.756C137.338 76.6067 137.536 76.5294 137.773 76.5294C138.011 76.5294 138.203 76.6014 138.356 76.748C138.505 76.8919 138.588 77.0838 138.599 77.321C138.879 77.0411 139.213 76.8226 139.6 76.668C139.988 76.5135 140.41 76.4335 140.861 76.4335C141.411 76.4335 141.903 76.5428 142.341 76.764C142.776 76.9852 143.137 77.2996 143.417 77.7074C143.74 77.3103 144.144 76.9985 144.63 76.772C145.116 76.5454 145.653 76.4335 146.246 76.4335C147.183 76.4335 147.942 76.74 148.519 77.3529H148.524Z"></path>
<path fill="#4A4F54" d="M157.418 77.0385C158.091 77.4302 158.625 77.9686 159.018 78.6508C159.411 79.3331 159.608 80.0953 159.608 80.9348V84.5326C159.608 84.7698 159.531 84.9643 159.373 85.1216C159.216 85.2788 159.021 85.3561 158.783 85.3561C158.545 85.3561 158.348 85.2788 158.193 85.1216C158.035 84.967 157.958 84.7698 157.958 84.5326V83.9356C157.581 84.3993 157.122 84.7591 156.582 85.0176C156.043 85.2761 155.46 85.404 154.835 85.404C154.058 85.404 153.356 85.2095 152.725 84.8231C152.095 84.4366 151.598 83.901 151.238 83.2187C150.877 82.5365 150.695 81.7743 150.695 80.9348C150.695 80.0953 150.89 79.3357 151.278 78.6508C151.665 77.9686 152.202 77.4302 152.886 77.0385C153.569 76.6467 154.328 76.4495 155.159 76.4495C155.989 76.4495 156.74 76.6467 157.413 77.0385H157.418ZM156.625 83.5572C157.06 83.2933 157.405 82.9336 157.651 82.4752C157.899 82.0168 158.022 81.5051 158.022 80.9348C158.022 80.3645 157.899 79.8474 157.651 79.3864C157.402 78.9253 157.06 78.5602 156.625 78.2964C156.19 78.0325 155.701 77.9019 155.161 77.9019C154.622 77.9019 154.136 78.0325 153.698 78.2964C153.262 78.5602 152.915 78.9227 152.661 79.3864C152.407 79.8501 152.282 80.3645 152.282 80.9348C152.282 81.5051 152.407 82.0194 152.661 82.4752C152.915 82.9309 153.259 83.2933 153.698 83.5572C154.133 83.821 154.622 83.9516 155.161 83.9516C155.701 83.9516 156.187 83.821 156.625 83.5572Z"></path>
<path fill="#4A4F54" d="M74.3354 42.774C74.3354 44.0985 73.5795 44.7595 72.0678 44.7595H53.2669C53.2669 47.739 54.0121 50.0389 55.5052 51.6566C56.9982 53.2769 59.1083 54.0844 61.8353 54.0844C62.9037 54.0844 63.8359 53.9459 64.6292 53.6714C65.4224 53.3969 66.0955 53.0637 66.6457 52.68C67.1986 52.2935 67.65 51.8991 67.9999 51.494C68.3498 51.0889 68.6356 50.7398 68.8573 50.4467C69.1137 50.0789 69.3648 49.8044 69.6025 49.6178C69.8429 49.4339 70.2008 49.3407 70.6815 49.3407C71.197 49.3407 71.7045 49.5059 72.2013 49.8364C72.6981 50.1668 72.9492 50.6092 72.9492 51.1609C72.9492 51.6406 72.7462 52.2083 72.3402 52.8718C72.009 53.3862 71.5736 53.9485 71.0421 54.5535C70.5079 55.1611 69.8242 55.7394 68.9962 56.2911C68.1655 56.8428 67.1612 57.3038 65.9833 57.6716C64.8028 58.0394 63.4219 58.2233 61.8353 58.2233C59.7707 58.2233 57.901 57.8635 56.2237 57.1466C54.5463 56.4297 53.1173 55.417 51.9368 54.1111C50.7562 52.8052 49.8534 51.2435 49.2284 49.4233C48.6007 47.6031 48.2882 45.6069 48.2882 43.4376C48.2882 41.2682 48.6007 39.2268 49.2284 37.4252C49.8534 35.6237 50.7482 34.07 51.9101 32.7641C53.0719 31.4582 54.4715 30.4482 56.1115 29.7286C57.7514 29.0117 59.5864 28.6519 61.6136 28.6519C63.6409 28.6519 65.5026 29.0117 67.0891 29.7286C68.673 30.4455 70.0004 31.4396 71.0715 32.7081C72.1399 33.9767 72.9519 35.4771 73.5047 37.204C74.0576 38.9337 74.3354 40.7912 74.3354 42.7767M61.6163 32.6815C60.3262 32.6815 59.2018 32.8947 58.2456 33.3157C57.2867 33.7395 56.4747 34.3071 55.8123 35.0267C55.1499 35.7436 54.6237 36.5911 54.2365 37.5638C53.8492 38.5392 53.6008 39.5599 53.4913 40.626H69.5811C69.4716 39.5973 69.2392 38.5952 68.8893 37.6198C68.5394 36.6471 68.04 35.7996 67.3963 35.0827C66.7499 34.3658 65.9486 33.7848 64.9897 33.3451C64.0309 32.9027 62.9064 32.6841 61.6163 32.6841"></path>
<path fill="#4A4F54" d="M83.1683 55.9606C83.1683 56.8081 82.9546 57.3864 82.5326 57.6982C82.1079 58.0101 81.5283 58.1673 80.7911 58.1673C80.0539 58.1673 79.4823 58.0101 79.0764 57.6982C78.6704 57.3864 78.4674 56.8055 78.4674 55.9606V31.2983C78.4674 30.4908 78.6517 29.9391 79.0203 29.6433C79.3889 29.3502 79.9417 29.2009 80.6789 29.2009C81.4161 29.2009 81.977 29.3475 82.3643 29.6433C82.7516 29.9391 82.9439 30.4908 82.9439 31.2983V33.8914C83.4594 32.9346 84.1592 32.0712 85.0459 31.2983C85.7831 30.6374 86.75 30.0297 87.9493 29.4781C89.1459 28.9264 90.6496 28.6519 92.4552 28.6519C95.3665 28.6519 97.7276 29.4621 99.5332 31.0798C101.339 32.6975 102.242 35.1813 102.242 38.5286V56.2378C102.242 57.525 101.486 58.17 99.9739 58.17C98.3526 58.17 97.5407 57.5277 97.5407 56.2378V39.6852C97.5407 37.5159 97.0893 35.8609 96.1865 34.7202C95.2837 33.5796 93.6518 33.0093 91.2933 33.0093C89.8563 33.0093 88.6197 33.3317 87.5887 33.974C86.555 34.619 85.7164 35.4558 85.0727 36.4845C84.4263 37.5159 83.9482 38.6645 83.6357 39.9331C83.3232 41.2016 83.1656 42.4622 83.1656 43.7121V55.9606H83.1683Z"></path>
<path fill="#4A4F54" d="M132.479 56.0699C132.479 56.8801 132.295 57.4317 131.927 57.7249C131.558 58.018 131.005 58.1673 130.268 58.1673C129.531 58.1673 128.967 58.0207 128.58 57.7249C128.193 57.4317 127.998 56.8801 127.998 56.0699V53.0344C127.223 54.4682 126.053 55.6835 124.488 56.6749C122.92 57.6689 121.013 58.1646 118.764 58.1646C116.809 58.1646 115.086 57.7968 113.593 57.0613C112.1 56.3257 110.829 55.305 109.779 53.9991C108.729 52.6933 107.936 51.1316 107.402 49.3087C106.868 47.4884 106.601 45.4923 106.601 43.323C106.601 41.1536 106.868 39.1682 107.402 37.3639C107.936 35.5624 108.729 34.0166 109.779 32.7294C110.829 31.4422 112.1 30.4401 113.593 29.7232C115.086 29.0063 116.809 28.6466 118.764 28.6466C119.905 28.6466 120.965 28.7931 121.943 29.089C122.92 29.3848 123.785 29.7499 124.541 30.1923C125.297 30.6347 125.952 31.1411 126.505 31.7087C127.057 32.279 127.479 32.8387 127.776 33.3904V20.8113C127.776 19.9665 127.987 19.3855 128.412 19.0737C128.836 18.7619 129.416 18.6047 130.153 18.6047C130.89 18.6047 131.462 18.7619 131.868 19.0737C132.274 19.3855 132.477 19.9665 132.477 20.8113V56.0699H132.479ZM111.579 43.4909C111.579 46.6916 112.279 49.2474 113.681 51.1609C115.081 53.0744 117.089 54.0285 119.707 54.0285C121.034 54.0285 122.212 53.762 123.246 53.229C124.277 52.6959 125.145 51.9524 125.845 50.9956C126.545 50.0389 127.071 48.9089 127.421 47.603C127.771 46.2972 127.947 44.8714 127.947 43.3283C127.947 40.0556 127.21 37.4892 125.735 35.6317C124.261 33.7741 122.196 32.8467 119.541 32.8467C118.214 32.8467 117.052 33.1052 116.058 33.6195C115.065 34.1366 114.234 34.8615 113.572 35.7996C112.907 36.7376 112.41 37.8596 112.079 39.1655C111.747 40.4714 111.582 41.9158 111.582 43.4962"></path>
<path fill="#4A4F54" d="M155.922 40.0156V38.9123C155.922 36.8176 155.378 35.2532 154.29 34.2218C153.203 33.1931 151.443 32.6788 149.01 32.6788C148.051 32.6788 147.22 32.788 146.521 33.0092C145.821 33.2304 145.223 33.4863 144.723 33.7821C144.226 34.0779 143.82 34.3897 143.508 34.7202C143.195 35.0507 142.926 35.3465 142.707 35.6023C142.338 36.0447 142.023 36.3379 141.766 36.4845C141.507 36.631 141.176 36.7057 140.77 36.7057C140.18 36.7057 139.638 36.5324 139.138 36.1806C138.641 35.8315 138.39 35.3811 138.39 34.8295C138.39 34.5363 138.417 34.2965 138.473 34.1126C138.529 33.9287 138.612 33.7261 138.721 33.5049C138.756 33.393 138.978 33.0812 139.384 32.5668C139.79 32.0525 140.407 31.5008 141.238 30.9119C142.066 30.3255 143.137 29.8005 144.445 29.3395C145.754 28.8811 147.349 28.6492 149.229 28.6492C151.328 28.6492 153.107 28.9157 154.566 29.4487C156.021 29.9818 157.191 30.6907 158.075 31.5728C158.959 32.4549 159.606 33.4756 160.012 34.6349C160.418 35.7942 160.621 36.9988 160.621 38.2487V56.3444C160.621 57.557 159.827 58.1646 158.244 58.1646C157.175 58.1646 156.521 57.9248 156.28 57.4477C156.04 56.9707 155.922 55.8114 155.922 54.9639V53.3089C155.554 53.8233 155.11 54.3563 154.595 54.9079C154.079 55.4596 153.444 55.9659 152.688 56.4243C151.932 56.8854 151.029 57.2612 149.977 57.5543C148.927 57.8475 147.72 58.1806 146.355 58.1806C144.696 58.1806 143.267 57.9781 142.068 57.573C140.869 57.1679 139.875 56.6082 139.082 55.8913C138.289 55.1744 137.699 54.1431 137.314 53.1677C136.927 52.1949 136.734 51.1529 136.734 50.0522C136.734 48.6184 136.991 47.2939 137.509 46.0786C138.024 44.866 138.911 43.8267 140.164 42.9632C141.416 42.0997 143.086 41.4175 145.169 40.9218C147.25 40.4261 149.878 40.1409 153.049 40.0663L155.925 40.0103L155.922 40.0156ZM152.88 43.768C150.522 43.8053 148.604 43.9706 147.13 44.2637C145.655 44.5596 144.493 44.954 143.647 45.4497C142.797 45.9454 142.218 46.545 141.905 47.2433C141.59 47.9415 141.435 48.733 141.435 49.6151C141.435 50.865 141.868 51.9417 142.733 52.8425C143.599 53.7433 145.028 54.1937 147.017 54.1937C148.751 54.1937 150.327 53.7993 151.745 53.0077C153.163 52.2162 154.242 51.2328 154.98 50.0549C155.605 49.0608 155.92 47.7203 155.92 46.028V43.7121L152.878 43.768H152.88Z"></path>
<path fill="#4A4F54" d="M166.302 20.8167C166.302 19.9719 166.502 19.3909 166.911 19.0791C167.317 18.7673 167.886 18.61 168.626 18.61C169.365 18.61 169.942 18.7673 170.367 19.0791C170.789 19.3909 171.003 19.9719 171.003 20.8167V55.9606C171.003 56.8081 170.789 57.3864 170.367 57.6982C169.942 58.01 169.363 58.1673 168.626 58.1673C167.888 58.1673 167.317 58.01 166.911 57.6982C166.505 57.3864 166.302 56.8054 166.302 55.9606V20.8167Z"></path>
<path fill="#2ED9C3" d="M39.9548 0H3.25323C1.453 0 0 1.83089 0 4.09884V58.6283C0 60.891 1.453 62.7245 3.25323 62.7245H39.9548C41.7497 62.7245 43.2081 60.891 43.2081 58.6283V4.09884C43.2081 1.83355 41.7497 0 39.9548 0Z"></path>
<path fill="#4A4F54" d="M37.989 54.7027C37.9169 54.3749 37.7353 54.0258 37.4308 53.634L22.4815 34.5976L34.6851 22.9061C35.1365 22.4557 35.4276 22.0692 35.5825 21.7174C35.7374 21.3603 35.8149 21.0645 35.8149 20.8167C35.8149 20.1824 35.5398 19.5747 34.9949 19.0098C34.4447 18.4394 33.7663 18.1516 32.9756 18.1516C32.2625 18.1516 31.5574 18.4954 30.8896 19.1617L12.9782 36.186V20.8726C12.9782 19.8812 12.7058 19.167 12.1662 18.7459C11.6614 18.3515 10.9616 18.1516 10.0855 18.1516C9.20947 18.1516 8.45359 18.3515 7.94878 18.7459C7.40925 19.167 7.13681 19.8812 7.13681 20.8726V55.409C7.13681 56.4003 7.40925 57.1172 7.94878 57.5357C8.45359 57.9301 9.17208 58.13 10.0855 58.13C10.999 58.13 11.6614 57.9301 12.1662 57.5357C12.7058 57.1146 12.9782 56.3977 12.9782 55.409V43.3603L18.2159 38.4353L32.3934 56.6322C33.1813 57.6263 34.0841 58.13 35.0777 58.13C35.3955 58.13 35.7374 58.0527 36.0927 57.8981C36.4239 57.7542 36.7364 57.565 37.0222 57.3411C37.324 57.1066 37.575 56.8214 37.7673 56.499C37.9757 56.1525 38.0825 55.7847 38.0825 55.4063C38.0825 55.2277 38.0531 54.9959 37.989 54.7027Z"></path>
</g>
<defs>
<clipPath id="clip0_744_6">
<rect fill="white" height="85.5" width="171"></rect>
</clipPath>
</defs>
</svg>
